<?xml version="1.0" encoding="UTF-8" standalone="no"?>
<svg id="svg2" xmlns:rdf="http://www.w3.org/1999/02/22-rdf-syntax-ns#" xmlns="http://www.w3.org/2000/svg" xml:space="preserve" height="74" width="44.933" version="1.1" xmlns:cc="http://creativecommons.org/ns#" viewBox="0 0 44.932558 74.000001" xmlns:dc="http://purl.org/dc/elements/1.1/"><metadata id="metadata8"><rdf:RDF><cc:Work rdf:about=""><dc:format>image/svg+xml</dc:format><dc:type rdf:resource="http://purl.org/dc/dcmitype/StillImage"/><dc:title/></cc:Work></rdf:RDF></metadata><defs id="defs6"><clipPath id="clipPath16" clipPathUnits="userSpaceOnUse"><path id="path18" d="m0 180.63h109.68v-180.63h-109.68v180.63z"/></clipPath></defs><g id="g10" transform="matrix(1.25 0 0 -1.25 0 74)"><g id="g12" transform="matrix(.32774 0 0 .32774 0 .000067226)"><g id="g14" clip-path="url(#clipPath16)"><g id="g20" transform="translate(98.186 82.079)"><path id="path22" d="m0 0h-4.973s-2.177 11.188-9.319 10.252c0 0 0.308 47.852 14.292 51.578v-61.83zm0-34.801h-20.51s1.712 9.323-2.485 10.565c0 0 18.022 0.932 18.643 14.603h4.352v-25.168zm-28.588 0h-10.252s-1.289 7.984 8.703 9.323c0 0 3.727-5.695 1.549-9.323m-10.252-27.339v17.09h10.252c-1.241-13.983-10.252-17.09-10.252-17.09m-4.348 37.168s-0.067 0.052-0.158 0.135c-0.092-0.083-0.154-0.135-0.154-0.135-3.648 5.087-10.332 7.921-10.332 7.921 5.359 6.526 10.332 25.169 10.332 25.169-0.048-0.198 0.012-0.577 0.154-1.107 0.142 0.53 0.205 0.909 0.158 1.107 0 0 4.968-18.643 10.328-25.169 0 0-6.68-2.834-10.328-7.921m-4.664-9.829h-10.252c-2.174 3.628 1.553 9.323 1.553 9.323 9.991-1.339 8.699-9.323 8.699-9.323m0-27.339s-9.007 3.107-10.252 17.09h10.252v-17.09zm-18.331 27.339h-20.505v25.168h4.352c0.62-13.671 18.639-14.603 18.639-14.603-4.194-1.242-2.486-10.565-2.486-10.565m-20.505 96.631c13.98-3.726 14.292-51.578 14.292-51.578-7.146 0.936-9.32-10.252-9.32-10.252h-4.972v61.83zm98.181 23.615c-9.328 0.38-17.149-7.663-22.489-14.39-6.746-8.505-8.323-17.525-10.236-28.018-1.309-7.201-2.348-14.45-3.095-21.734-0.127-1.201-0.585-19.272-1.151-19.438 4.285 1.249 7.17-1.131 8.348-5.28 1.004-3.542-1.98-8.039-6.039-7.348-1.435 0.249-2.438 3.514-3.06 4.751-1.963 3.917-3.478 8.071-4.837 12.233-1.723 5.292-3.217 10.699-4.356 16.149 0 5.904 1.241 61.83 1.241 61.83-0.257 3.855-6.873 11.732-9.165 14.352-2.293-2.62-8.909-10.497-9.162-14.352 0 0 1.241-55.926 1.241-61.83-1.138-5.45-2.631-10.857-4.355-16.149-1.363-4.162-2.878-8.316-4.842-12.233-0.624-1.237-1.624-4.502-3.059-4.751-4.059-0.691-7.043 3.806-6.04 7.348 1.178 4.149 4.064 6.529 8.352 5.28-0.564 0.166-1.027 18.237-1.154 19.438-0.742 7.284-1.786 14.533-3.094 21.734-1.91 10.493-3.486 19.513-10.237 28.018-5.336 6.727-13.158 14.77-22.49 14.39v-133.91s30.039 0 29.83-0.004c-0.277-0.058 10.327-29.749 24.856-33.554 0.047-0.013 0.099-0.04 0.154-0.052 0.055 0.012 0.111 0.039 0.158 0.052 18.952 5.438 25.129 33.496 24.852 33.554-0.209 0.004 29.829 0.004 29.829 0.004v133.91z" fill="#fcc300"/></g></g></g></g></svg>
