<?xml version="1.0" encoding="UTF-8" standalone="no"?>
<svg id="svg2" xmlns:rdf="http://www.w3.org/1999/02/22-rdf-syntax-ns#" xmlns="http://www.w3.org/2000/svg" xml:space="preserve" height="74" width="60.808" version="1.1" xmlns:cc="http://creativecommons.org/ns#" viewBox="0 0 60.80825 74.000001" xmlns:dc="http://purl.org/dc/elements/1.1/"><metadata id="metadata8"><rdf:RDF><cc:Work rdf:about=""><dc:format>image/svg+xml</dc:format><dc:type rdf:resource="http://purl.org/dc/dcmitype/StillImage"/><dc:title/></cc:Work></rdf:RDF></metadata><defs id="defs6"><clipPath id="clipPath16" clipPathUnits="userSpaceOnUse"><path id="path18" d="m0 211.77h174.02v-211.77h-174.02v211.77z"/></clipPath></defs><g id="g10" transform="matrix(1.25 0 0 -1.25 0 74)"><g id="g12" transform="scale(.27955)"><g id="g14" clip-path="url(#clipPath16)"><g id="g20" transform="translate(155.76 1.3994)"><path id="path22" d="m0 0c-1.977-1.452-4.152-1.835-4.877-0.862l-75.271 102.41c-0.715 0.977 0.312 2.945 2.286 4.397l15.75 11.57c1.982 1.457 4.158 1.843 4.872 0.872l75.273-102.42c0.714-0.971-0.304-2.94-2.282-4.392l-15.751-11.578z" fill="#f4b400"/></g><g id="g24" transform="translate(105.21 146.96)"><path id="path26" d="m0 0c0-24.979-20.244-45.223-45.228-45.223-24.974 0-45.218 20.244-45.218 45.223s20.244 45.229 45.218 45.229c24.984 0 45.228-20.25 45.228-45.229" fill="#f4b400"/></g><g id="g28" transform="translate(5.3789 184.24)"><path id="path30" d="m0 0s9.357-19.488 11.459-22.706c4.043-6.19 19.25 15.695 14.986 16.778-2.18 0.558-26.445 5.928-26.445 5.928" fill="#ffc943"/></g><g id="g32" transform="translate(0 123.33)"><path id="path34" d="m0 0s21.577-1.268 25.416-0.991c7.376 0.525-4.388 24.439-7.406 21.245-1.54-1.641-18.01-20.254-18.01-20.254" fill="#ffc943"/></g><g id="g36" transform="translate(34.465 86.835)"><path id="path38" d="m0 0s17.774 12.289 20.632 14.866c5.476 4.959-18.512 16.567-18.917 12.183-0.217-2.245-1.715-27.049-1.715-27.049" fill="#ffc943"/></g><g id="g40" transform="translate(59.508 211.77)"><path id="path42" d="m0 0s-9.177-19.572-10.348-23.236c-2.245-7.048 24.325-4.997 22.476-1.01-0.954 2.042-12.128 24.246-12.128 24.246" fill="#ffc943"/></g><g id="g44" transform="translate(114.21 184.04)"><path id="path46" d="m0 0s-21.485-2.365-25.224-3.277c-7.181-1.757 8.413-23.366 10.851-19.706 1.254 1.877 14.373 22.983 14.373 22.983" fill="#ffc943"/></g><g id="g48" transform="translate(125.58 137.6)"><path id="path50" d="m0 0s-18.18 11.681-21.659 13.326c-6.689 3.153-8.164-23.453-3.969-22.148 2.148 0.673 25.628 8.822 25.628 8.822" fill="#ffc943"/></g><g id="g52" transform="translate(64.768 128.48)"><path id="path54" d="m0 0s2.535 9.772 13.787 8.61v-16.095l-13.787 7.485z" fill="#ffc943"/></g><g id="g56" transform="translate(61.56 175.59)"><path id="path58" d="m0 0 14.626 7.486v-19.208s-16.239 1.656-14.626 11.722" fill="#ffc943"/></g><g id="g60" transform="translate(20.756 153.11)"><path id="path62" d="m0 0 14.953-7.56s8.708 6.624 0 16.05l-14.953-8.49z" fill="#ffc943"/></g><g id="g64" transform="translate(102.18 123.42)"><path id="path66" d="m0 0c-1.425 1.996-4.204 2.457-6.19 1.023l-25.316-18.124c-2.001-1.433-2.457-4.212-1.032-6.2l3.106-4.333c1.429-2 4.2-2.452 6.196-1.022l25.315 18.124c2 1.433 2.457 4.204 1.024 6.2l-3.103 4.332z" fill="#ffc943"/></g></g></g></g></svg>
