<?xml version="1.0" encoding="UTF-8" standalone="no"?>
<svg id="svg2" xmlns:rdf="http://www.w3.org/1999/02/22-rdf-syntax-ns#" xmlns="http://www.w3.org/2000/svg" xml:space="preserve" height="67.206" width="80" version="1.1" xmlns:cc="http://creativecommons.org/ns#" viewBox="0 0 80 67.205963" xmlns:dc="http://purl.org/dc/elements/1.1/"><metadata id="metadata8"><rdf:RDF><cc:Work rdf:about=""><dc:format>image/svg+xml</dc:format><dc:type rdf:resource="http://purl.org/dc/dcmitype/StillImage"/><dc:title/></cc:Work></rdf:RDF></metadata><defs id="defs6"><clipPath id="clipPath16" clipPathUnits="userSpaceOnUse"><path id="path18" d="m0 211h251.17v-211h-251.17v211z"/></clipPath></defs><g id="g10" transform="matrix(1.25 0 0 -1.25 0 67.206)"><g id="g12" transform="scale(.25481)"><g id="g14" clip-path="url(#clipPath16)"><g id="g20" transform="translate(184.3 96.398)"><path id="path22" d="m0 0c0-32.806-26.595-59.399-59.399-59.399-32.806 0-59.401 26.593-59.401 59.399s26.595 59.4 59.401 59.4c32.804 0 59.399-26.594 59.399-59.4" fill="#c9c9c9"/></g><path id="path24" d="m191.5 4.383h-134v77.867h134v-77.867z" fill="#e0e0e0"/><path id="path26" d="m207.17 83.056h-165v23.277h165v-23.277z" fill="#c9c9c9"/><path id="path28" d="m68.167 89h-67v10h67v-10z" fill="#c9c9c9"/><path id="path30" d="m67 0h-67v10h67v-10z" fill="#bcbcbc"/><path id="path32" d="m24.167 10h-18.666v67.111h18.666v-67.111z" fill="#c9c9c9"/><path id="path34" d="m24.167 89h-18.666v-12.236h18.666v12.236z" fill="#bcbcbc"/><path id="path36" d="m60.833 10h-18.666v67.111h18.666v-67.111z" fill="#c9c9c9"/><path id="path38" d="m206.83 10h-18.666v67.111h18.666v-67.111z" fill="#c9c9c9"/><path id="path40" d="m42.167 10h-18v79h18v-79z" fill="#d8d8d8"/><path id="path42" d="m60.833 89h-18.666v-11.889h18.666v11.889z" fill="#bcbcbc"/><path id="path44" d="m251.17 89h-67v10h67v-10z" fill="#c9c9c9"/><path id="path46" d="m250 0h-67v10h67v-10z" fill="#bcbcbc"/><path id="path48" d="m207.17 89h-18.666v-12.236h18.666v12.236z" fill="#bcbcbc"/><path id="path50" d="m243.83 10h-18.666v66.764h18.666v-66.764z" fill="#c9c9c9"/><path id="path52" d="m225.17 10h-18v79h18v-79z" fill="#d8d8d8"/><path id="path54" d="m243.83 89h-18.666v-11.889h18.666v11.889z" fill="#bcbcbc"/><path id="path56" d="m188.67 87.499h-127.83v-10.499h127.83v10.499z" fill="#bcbcbc"/><path id="path58" d="m80.667 71.999h-13.667v5.001h13.667v-5.001z" fill="#c9c9c9"/><path id="path60" d="m80.667 7.999h-13.667v6.001h13.667v-6.001z" fill="#c9c9c9"/><path id="path62" d="m78.167 14h-8.666v57.999h8.666v-57.999z" fill="#c9c9c9"/><path id="path64" d="m100.67 71.999h-13.667v5.001h13.667v-5.001z" fill="#c9c9c9"/><path id="path66" d="m100.67 7.999h-13.67v6.001h13.667v-6.001z" fill="#c9c9c9"/><path id="path68" d="m98.167 14h-8.666v57.999h8.666v-57.999z" fill="#c9c9c9"/><path id="path70" d="m121.67 71.999h-13.667v5.001h13.667v-5.001z" fill="#c9c9c9"/><path id="path72" d="m121.67 7.999h-13.667v6.001h13.667v-6.001z" fill="#c9c9c9"/><path id="path74" d="m119.17 14h-8.666v57.999h8.666v-57.999z" fill="#c9c9c9"/><path id="path76" d="m142.67 71.999h-13.667v5.001h13.667v-5.001z" fill="#c9c9c9"/><path id="path78" d="m142.67 7.999h-13.667v6.001h13.667v-6.001z" fill="#c9c9c9"/><path id="path80" d="m140.17 14h-8.666v57.999h8.666v-57.999z" fill="#c9c9c9"/><path id="path82" d="m163.67 71.999h-13.667v5.001h13.667v-5.001z" fill="#c9c9c9"/><path id="path84" d="m163.67 7.999h-13.667v6.001h13.667v-6.001z" fill="#c9c9c9"/><path id="path86" d="m161.17 14h-8.666v57.999h8.666v-57.999z" fill="#c9c9c9"/><path id="path88" d="m183.67 71.999h-13.667v5.001h13.667v-5.001z" fill="#c9c9c9"/><path id="path90" d="m183.67 7.999h-13.667v6.001h13.667v-6.001z" fill="#c9c9c9"/><path id="path92" d="m181.17 14h-8.666v57.999h8.666v-57.999z" fill="#c9c9c9"/><path id="path94" d="m183.25 4.383h-116.25v3.616h116.25v-3.616z" fill="#bcbcbc"/><path id="path96" d="m183 0h-116.25v3.616h116.25v-3.616z" fill="#bcbcbc"/><path id="path98" d="m214.17 106.33h-177.67v5.333h177.67v-5.333z" fill="#c9c9c9"/><path id="path100" d="m185.5 106.33h-121.33v8.558h121.33v-8.558z" fill="#bcbcbc"/><g id="g102" transform="translate(142.67 153.17)"><path id="path104" d="m0 0c0-1.381-1.119-2.5-2.5-2.5h-29.667c-1.381 0-2.5 1.119-2.5 2.5s1.119 2.5 2.5 2.5h29.667c1.381 0 2.5-1.119 2.5-2.5" fill="#bcbcbc"/></g><path id="path106" d="m134.25 161.67h-19.333v4h19.333v-4z" fill="#bcbcbc"/><path id="path108" d="m131.42 155.67h-13.667v6h13.667v-6z" fill="#bcbcbc"/><g id="g110" transform="translate(148.75 115.18)"><path id="path112" d="m0 0c0-13.347-10.82-24.166-24.167-24.166s-24.167 10.819-24.167 24.166 10.82 24.167 24.167 24.167 24.167-10.82 24.167-24.167" fill="#0073b9"/></g><g id="g114" transform="translate(126.5 166.45)"><path id="path116" d="m0 0c0-0.986-0.8-1.785-1.785-1.785-0.986 0-1.785 0.799-1.785 1.785v42.764c0 0.985 0.799 1.784 1.785 1.784 0.985 0 1.785-0.799 1.785-1.784v-42.764z" fill="#bcbcbc"/></g><g id="g118" transform="translate(127.25 205.82)"><path id="path120" d="m0 0c2.25 5.667 13.826 1.481 15.002 1.237 4.168-0.865 15.915-8.57 22.165-1.896v-24.008c0-1.482-6.438-2.79-7.304-2.925-8.082-1.261-24.384 9.689-29.863-0.26 0 0-0.016 27.812 0 27.852" fill="#0073b9"/></g><g id="g122" transform="translate(146.26 192.64)"><path id="path124" d="m0 0c-2.734 1.357-5.959 1.886-8.98 2.053-0.491 0.027-7.679-0.286-10.038-0.708 0.002-7.587 0.006-16.022 0.006-16.022 5.479 9.948 21.782-1.001 29.864 0.26 0.865 0.135 7.303 1.442 7.303 2.925v10.495c-5.516-2.892-13.1-1.513-18.155 0.997" fill="#fcc300"/></g><g id="g126" transform="translate(133.9 113.41)"><path id="path128" d="m0 0h-1.068s-0.468 2.404-2.003 2.203c0 0 0.066 10.283 3.071 11.084v-13.287zm0-7.479h-4.407s0.368 2.004-0.534 2.271c0 0 3.873 0.2 4.006 3.139h0.935v-5.41zm-6.144 0h-2.203s-0.276 1.716 1.871 2.004c0 0 0.801-1.223 0.332-2.004m-2.203-5.874v3.672h2.203c-0.265-3.005-2.203-3.672-2.203-3.672m-0.933 7.987s-0.015 0.012-0.034 0.029c-0.02-0.017-0.034-0.029-0.034-0.029-0.784 1.094-2.219 1.702-2.219 1.702 1.151 1.402 2.219 5.408 2.219 5.408-0.009-0.042 0.003-0.123 0.034-0.237 0.03 0.114 0.043 0.195 0.034 0.237 0 0 1.067-4.006 2.218-5.408 0 0-1.435-0.608-2.218-1.702m-1.002-2.113h-2.203c-0.467 0.781 0.334 2.004 0.334 2.004 2.146-0.288 1.869-2.004 1.869-2.004m0-5.874s-1.936 0.667-2.203 3.672h2.203v-3.672zm-3.94 5.874h-4.406v5.41h0.936c0.132-2.939 4.004-3.139 4.004-3.139-0.901-0.267-0.534-2.271-0.534-2.271m-4.406 20.766c3.004-0.801 3.071-11.084 3.071-11.084-1.536 0.201-2.003-2.203-2.003-2.203h-1.068v13.287zm21.098 5.074c-2.004 0.082-3.686-1.646-4.832-3.091-1.451-1.829-1.789-3.767-2.2-6.022-0.282-1.547-0.505-3.104-0.666-4.67-0.027-0.259-0.125-4.141-0.247-4.178 0.921 0.269 1.54-0.242 1.794-1.133 0.215-0.762-0.425-1.728-1.298-1.58-0.308 0.054-0.524 0.755-0.657 1.021-0.422 0.842-0.748 1.734-1.04 2.629-0.37 1.138-0.69 2.299-0.935 3.47 0 1.269 0.266 13.287 0.266 13.287-0.054 0.828-1.476 2.52-1.969 3.084-0.494-0.564-1.915-2.256-1.969-3.084 0 0 0.266-12.018 0.266-13.287-0.244-1.171-0.565-2.332-0.935-3.47-0.293-0.895-0.619-1.787-1.041-2.629-0.134-0.266-0.349-0.967-0.656-1.021-0.873-0.148-1.514 0.818-1.299 1.58 0.254 0.891 0.873 1.402 1.795 1.133-0.121 0.037-0.221 3.919-0.248 4.178-0.161 1.566-0.384 3.123-0.665 4.67-0.411 2.255-0.749 4.193-2.201 6.022-1.146 1.445-2.826 3.173-4.832 3.091v-28.776s6.455 0 6.411-0.001c-0.06-0.013 2.218-6.393 5.34-7.211 0.011-0.002 0.022-0.008 0.034-0.011 0.011 0.003 0.024 0.009 0.034 0.011 4.072 1.169 5.4 7.198 5.34 7.211-0.045 0.001 6.41 0.001 6.41 0.001v28.776z" fill="#fcc300"/></g></g></g></g></svg>
